<?xml version="1.0" encoding="UTF-8"?>
<svg id="a" data-name="Layer 1" xmlns="http://www.w3.org/2000/svg" viewBox="0 0 640.31 660.73">
  <path d="M556.32,333.16c-19.29,6.15-38.64-10.6-46.22-27.29-.97-2.13-.47-7.54-3.04-3.44-6.52,10.4,5.88,34.74,7.76,47.71,1.91,13.21,1.05,31.03-2,44.02-.87,3.72-7.19,17.5-7.14,18.49.13,2.35,25.96,31.47,29.64,36.51,15.11,20.69,27.41,43.72,38,67-65.67,85.14-182.06,120.46-284.52,83.02-7.23-2.64-36.02-15.09-40-20-.98-1.21-.83-1.11.13-2.07,2.48-2.47,10.51-6.36,13.75-9.12,10.37-8.84,19.37-23.8,23.63-36.81-6.3,4.32-10.27,9.24-17.08,13.41-13.18,8.08-29.38,13.47-44.92,10.57,9.31-7.54,15.89-18.13,17.99-29.98-27.32,11.4-52.61-5.58-61.76-31.74-1.53-4.37-2.05-11.99-3.8-15.2-1.31-2.38-9.92-8.92-13.23-13.77-4.01-5.88-7.62-13.35-9.21-20.3-1.78,2.1-1.16,7.79-.97,10.47,3.8,54.19,39.82,100.72,84.98,128.02-3.49.34-7.92-2.45-11.02-3.98-49.68-24.66-90.73-73.01-112.83-123.27-.57-4.95,26.31-33.91,26.86-38.78.22-1.94-6.34-19.05-7.32-23.66-3.2-15.02-3.46-28.9-1.53-44.16,1.95-15.46,13.76-35.34,2.86-47.65-.66,12.02-16.62,29.97-28.52,31.01-15.18,1.32-9.88-8.9-11.62-19.38-5.27-31.74-34.08-47.5-30.74-84.99,3.51-39.32,33.69-38.26,59.78-54.22,24.92-15.24,37.38-38.57,71.56-36.4,12.76.81,16.5,5.56,26.53,9.47,14.2,5.54,27.95-1.6,42.65-3.34,20.12-2.38,39.57-2.52,57.69,7.61l15.84-4.88c24.05-9.51,50.61.16,76.17,5.14.64-.09.48-1.73,1.39-1.99,11.95-3.52,22.6-11.78,36.26-13.04,35.34-3.26,44.98,16.94,69.7,32.8,25.14,16.14,61.08,17.95,65.17,55.83,4.17,38.6-23.78,56.24-27.85,87.89-.57,4.39.58,9.55-.09,13.91-.39,2.53-2.77,5.01-2.93,6.57ZM402.32,167.18c-1-1.02-15.78-6.65-18.22-7.3-15.62-4.16-35.79-4.26-50.97,1.59-2.58.99-10.14,6.46-11.48,6.55-.73.05-7.56-5.5-10.05-6.63-17.91-8.19-41.14-5.25-59.71-1.15-8.19,1.81-15.45,6.3-24.1,5.99-12.25-.44-18.24-11.99-30.23-13.8-35.28-5.3-53.56,28.11-62.98,56.49-8.79,26.47-8.49,52.85-12.24,80.24,8.13-15.17,8-33.24,11.67-49.81,6.36-28.66,23.64-86.22,63.11-77.48,4.86,1.07,19.27,11.8,20.03,15.94.44,2.43-11.41,11.93-13.86,14.83-5.88,6.96-10.88,15.25-11.96,24.52,18.07-12.6,61.61-26.49,80.97-13.45.63.43,10.25,9.2,10.7,9.77,3.59,4.58,6.09,18.04,8.33,20.18,3.87,3.7,26.36,4.18,29.51,14.51l9.66-18.34,12.33-13.67c-.14,2.87-2.8,19.79,1.97,18.98,3.49-.59,6.4-16.01,8.32-19.7,5.24-10.07,16.78-16.93,27.84-18.16l21.36-.12c-16.72-8.44-31.28-13.07-50.01-7.53-16.49,4.87-24.73,17.01-34.97,29.52,1.85-17.49-11.1-32.29-25.81-39.7-7.32-3.69-14.16-4.31-21.01-7.04-1.52-.6-2.7.57-2.19-2.25,18.5.16,39.49,1.31,53.49,14.95,17.7-17.07,47.45-19.56,71-17.96.72.05,13.37,3.97,9.49.02ZM520.31,280.16c-2.3-37.29-4.38-84.55-33.46-112.02-14.08-13.3-40.23-24.46-54.04-5,42.96-17.04,58.82,8.9,70.01,45.03l17.5,71.99ZM452.01,228.48c-18.75-16.75-69.69-36.43-86.1-8.22-7.9,13.59-4.84,32.92,14.4,30.89-11.75-34.14,26.33-37.95,49.99-29.48,18.01,6.45,30.86,22.1,41,37.48-3.2-10.47-11.21-23.45-19.3-30.68ZM267.96,214.53c-30.39-28.89-105.01,20.94-97.56,64.06,1.7,9.85,11.03.54,14.34-3.52,12.35-15.13,16.16-31.58,41.98-28.8,4.26.46,18.98,7.72,19.6,6.88,3.02-4.07-8.21-15.31-11.96-17.53-2.37-1.41-10.03-2.93-5.31-4.24,13.58-3.77,32.26,9.05,31.29,23.77,18.53-5.55,20.85-28.06,7.63-40.63ZM317.32,265.15c1.68-2.06-6.34-8.88-8.7-9.79-30.06-11.47-67.74,23.36-80.47,48.12-6.22,12.1-9.78,25.75-13.82,38.67,25.79-32.59,43.17-61.5,85.77-73.71,3.2-.92,16.66-2.62,17.22-3.3ZM329.33,266.16c43.97.15,71.16,40.8,96.97,70.52-9.48-30.33-25.1-63.68-55.62-77.37-13.07-5.86-35.06-10.25-41.35,6.85ZM212.57,270.92c5.38,5.43,13.84-6.36,8.35-10.86-5.18-4.24-13.04,6.12-8.35,10.86ZM417.05,260.34c-4.82,1.4-7.76,12.48-.25,12.69,10.16.29,9.17-15.28.25-12.69ZM445.31,274.16c-2.91,2.88-2.05,5.67-5.45,9.04-9.78,9.69-28.92,2.11-28.55-12.04-4.99,6.9,3.4,19.06,10,21.51,12.36,4.59,27.91-3.94,24-18.52ZM226.32,287.17c-11.69,1.63-15.81-3.92-20.99-13.01-1.9,13.81,9.54,24.27,20.99,13.01ZM389.01,304.48c-49.88-44.03-114.99-28.24-152.1,22.78-12.67,17.42-23.74,38.29-26.58,59.91,4.22-4.24,8.14-8.93,11.96-13.53,36.86-44.41,53.96-96.94,123.09-81.03,26.95,6.2,40.5,37.12,57.43,56.57,8.93,10.26,20.12,18.7,28.02,29.97-5.59-26.17-20.47-48.42-36.49-69.22l-5.33-5.44ZM219.32,304.17c-6.21.29-10.85.4-15.92-3.59s-5.61-9.62-9.06-14.43c-6.85,18.17,13.32,38.94,24.99,18.01ZM185.08,299.41c-1.44-1.72-9.7-2.75-12.03-2.21-1.67.39-12.25,13.29-13.56,15.62-15.98,28.43-10.19,78,10.81,102.85l-3.01-16.98,1.03-30.53c2.53,18.24,5.05,40.91,20.5,53.01,6.8-20.68,1.65-42.78,4.64-64.38.77-5.56,7.7-24.78,7.58-26.14-.05-.59-5.86-7-7.22-9.47-2.24-4.06-4.36-8.51-6.26-12.74-1-2.23-1.6-8-2.47-9.03ZM291.31,327.16c-.41-12.63,7.34-20.67,20.27-18.75,2.86.43,7.62,3.42,9.41,3.51s7.31-3.24,10.94-3.64c13.87-1.52,21.77,7.46,19.88,20.86,7.41-9.31-1.4-20.67-10.93-24.04-10.89-3.86-39.14-3.73-47.58,5.55-3.38,3.72-6.61,12.71-2,16.51ZM294.33,342.15c16.04,8.34,29.42-13.49,16.49-24.98.21,3.56,1.73,5.37,1.57,9.51-.24,6.13-3.63,11.49-9.51,13.53-3.02,1.05-6.51.24-8.54,1.94ZM348.32,342.17c-15.05,3.12-19.79-12.94-13.49-23.99-14.19,9.35-1.71,32.97,13.49,23.99ZM474.31,341.17c-.08-.08-1.92-.07-1.98,0-.44.59,3.94,11.66,3.04,14.45l-.55,38.54c4.53-9.7,5.35-20.95,4.56-31.55-.24-3.17-3.57-20.05-5.06-21.45ZM276.32,343.17c-15.24,1.34-30.36,14.22-40.02,25.47-21.06,24.51-46.09,86.81-38.52,118.57,5.02,21.07,24.3,18.43,36.51,4.42,25.49-29.24,19.17-84.02,62.54-99.46l-4.51-1.02,7.99-4.49-6.01-.99c1.42-2.16,6.85.04,6.01-3.49l-9-1.99,7.99-2.03-5.01-3.98,6-1.99-5.99-2c1.85-.69,8.58.45,7.99-3.01h-7s1.01-2,1.01-2c-4.39-2.11-19.58,11.52-21,9.99-2.28-2.46,11.2-17.22,9.99-21.99-8,.03-14.05,5.13-20.99,7.99-1.3-1.23,13.26-14.21,11.99-17.99ZM410,368.48c-9.88-11.25-26.93-21.25-41.67-24.31.56,7.76,8.08,12.08,12.99,16.98-7.5,1.02-10.44-4.83-17.01-6.5-16.56-4.2.55,14.02,5.01,18.5-11.15-2.48-31.92-11.02-28.97,9.42.95,6.57,19.9,17.32,25.49,22.56,29.74,27.84,21.11,86.31,65.47,98.02l-7.99-5.98c8.25.95,15.5,3.55,20.83-4.68,15.75-24.32-16.11-103.46-34.16-124.02ZM357.32,418.15c-18.84-16.14-52.43-16.05-70.98.52,22.5-7.78,48.38-8,70.98-.52ZM305.32,436.17c-1.63-2.72-6.22,10.49-8,7.98l.99-4.99c-2.35,1.01-3.66,3.59-4,5.99l-1.97-3.98c-3.15,5.43-14.81,29.11-11.01,34,.13.16,2.04-1.28,3.01-.61s2.84,5.99,3,7.6l1.97-9.99,2.02,10.99,1.48-3.99,4.49,7.99c.19-2.8-.27-5.69.03-8.48.24-2.2.65-6.88,1.97-8.51.77,6.19,2.57,10.28,6.52,14.99l2.48-5.99c.07,3.53.97,7.37,3.52,9.99l1.48-7.99,3.03,9.98,2.47-7c1.09,2.32.44,5.87,3.5,7.01l1-6.99c.49,2.65,1.27,5.88,4,6.99l1-4.99,3,5.98,2.03-8.98,1.97,4.98,1.02-7,3.98,5,2.02-9.99,3.48,6.99,3.49-9.99c-.24,1.29,1.57,7.78,3,6.99,2.91-5.03,6.3-4.18,6.52-12.01l2.49,8.01c1.53-11.85-3.43-23.51-11.49-31.99l-1.48,2.99-1.03-4.98c-1.95-.32-.53,2.41-.99,3-2.24,2.88-1.36-3.25-2.98-3l-2,4.99-1.03-5.99c-3.83,5.07-1.85-.17-4.97-2.01l-1,4.99-1.51-4.99-3.49,4.99c-1.28-11.46-3.16-4.47-6,1-.18-11.71-3.11-4.96-4.51-5.01-1.09-.04-.93-3.88-2.98-2.98l-5.5,10.99-.02-11.99-5.98,9.99.99-9.98ZM420.33,570.15c51.53-11.42,75.63-64.19,76.98-112.98l-5.73,21.76c-10.21,34.03-28.65,65.6-59.34,84.66-3.82,2.37-8.32,3.89-11.91,6.57Z" fill="#fff"/>
  <path d="M640.31,261.16l-13.13-34.35C561.14,76.22,366.41.16,221.8,90.14c-15.97,9.94-32.2,27.62-45.52,35.48-3.66,2.16-8.65,2.42-12.64,4.36-19.31,9.4-31.38,25.18-49,35-27.2,15.16-53.13,14.98-60.86,53.14-8.43,41.65,11.44,52.16,25.71,83.35,8.47,18.51,2.74,48.67,3.84,69.16,9.74,181.43,190.7,296.8,361.98,248.01,29.93-8.53,55.95-22.46,81.98-39.01-101.76,94.17-253.15,107.42-370.89,33.92C-132.26,433.38,5.25-26.3,351.8,1.18c144.17,11.43,263.31,117.43,288.51,259.98Z" fill="#fff"/>
  <path d="M573.32,516.16c-10.59-23.28-22.89-46.31-38-67,14.37-32.49,19.18-64.31,22.04-99.46.43-5.26-1.44-12.84-1.04-16.54.17-1.55,2.55-4.04,2.93-6.57.66-4.36-.48-9.52.09-13.91,4.07-31.65,32.02-49.29,27.85-87.89-4.09-37.88-40.03-39.69-65.17-55.83-24.71-15.87-34.36-36.06-69.7-32.8-63.81-47.27-153.08-57.52-226.99-29.01,112.54-68.91,258.8-44.54,343.51,56,83.49,99.09,83.01,251.2,4.49,353.01Z" fill="#ba0c2f" stroke="#000" stroke-miterlimit="10"/>
  <path d="M406.96,397.53c7.32,6.99,14.54,18.14,13.36,28.63l-22.98-33.51c-1.78-4.56,8.83,4.13,9.62,4.88Z" fill="#1e2124"/>
  <path d="M399.31,420.16c-2.27,2.54-11.06-10.54-8.99-12.99,1.62-1.92,11.22,10.5,8.99,12.99Z" fill="#1e2124"/>
  <path d="M249.31,392.17l-22.99,33.99c-.59-14.11,10.19-28.82,22.99-33.99Z" fill="#1e2124"/>
  <path d="M255.31,408.17c1.66,1.66-1.77,8.8-4.71,9.78-10.69,3.56.98-13.53,4.71-9.78Z" fill="#1e2124"/>
</svg>