<?xml version="1.0" encoding="UTF-8"?>
<svg id="a" data-name="Layer 1" xmlns="http://www.w3.org/2000/svg" viewBox="0 0 678.37 700">
  <path d="M589.38,352.96c-20.44,6.51-40.94-11.23-48.97-28.91-1.03-2.26-.5-7.99-3.22-3.65-6.91,11.01,6.23,36.81,8.23,50.55,2.03,13.99,1.11,32.87-2.11,46.64-.92,3.94-7.62,18.54-7.56,19.59.14,2.49,27.5,33.34,31.4,38.68,16.01,21.92,29.04,46.32,40.26,70.98-69.57,90.2-192.88,127.62-301.42,87.95-7.66-2.8-38.16-15.98-42.38-21.19-1.03-1.28-.88-1.17.14-2.2,2.62-2.62,11.14-6.74,14.56-9.66,10.99-9.37,20.52-25.22,25.03-39-6.67,4.58-10.88,9.79-18.09,14.21-13.97,8.56-31.13,14.27-47.59,11.2,9.86-7.99,16.83-19.2,19.06-31.77-28.95,12.08-55.73-5.91-65.43-33.62-1.62-4.63-2.17-12.71-4.03-16.1-1.38-2.52-10.51-9.45-14.02-14.59-4.25-6.22-8.08-14.14-9.76-21.5-1.88,2.23-1.23,8.25-1.03,11.1,4.03,57.42,42.19,106.71,90.03,135.63-3.7.36-8.39-2.59-11.67-4.22-52.64-26.13-96.12-77.35-119.54-130.59-.61-5.25,27.87-35.93,28.46-41.09.23-2.05-6.72-20.18-7.76-25.06-3.39-15.92-3.66-30.62-1.62-46.79,2.07-16.38,14.58-37.44,3.03-50.49-.7,12.73-17.61,31.75-30.22,32.85-16.09,1.39-10.46-9.43-12.31-20.53-5.59-33.63-36.11-50.32-32.56-90.04,3.72-41.66,35.69-40.53,63.34-57.44,26.4-16.15,39.61-40.86,75.81-38.56,13.52.86,17.48,5.89,28.1,10.04,15.05,5.87,29.61-1.69,45.18-3.53,21.31-2.52,41.92-2.67,61.12,8.06l16.79-5.17c25.48-10.08,53.62.17,80.7,5.45.68-.09.51-1.83,1.47-2.11,12.66-3.73,23.95-12.48,38.41-13.81,37.44-3.45,47.66,17.94,73.84,34.75,26.63,17.1,64.71,19.02,69.05,59.14,4.42,40.89-25.19,59.58-29.5,93.12-.6,4.65.61,10.12-.09,14.73-.41,2.68-2.93,5.31-3.11,6.96ZM426.23,177.12c-1.06-1.08-16.72-7.04-19.3-7.73-16.55-4.41-37.92-4.51-54,1.69-2.73,1.05-10.74,6.85-12.17,6.94-.77.05-8.01-5.83-10.65-7.03-18.97-8.67-43.59-5.56-63.25-1.22-8.68,1.92-16.37,6.67-25.53,6.34-12.98-.46-19.32-12.71-32.03-14.62-37.38-5.62-56.74,29.78-66.73,59.85-9.31,28.04-8.99,55.99-12.97,85.01,8.61-16.07,8.47-35.22,12.37-52.77,6.74-30.37,25.05-91.34,66.86-82.09,5.15,1.14,20.42,12.5,21.22,16.89.47,2.57-12.09,12.64-14.68,15.71-6.23,7.38-11.53,16.15-12.67,25.98,19.14-13.35,65.27-28.06,85.79-14.25.67.45,10.86,9.74,11.33,10.35,3.8,4.85,6.45,19.11,8.82,21.38,4.1,3.92,27.93,4.43,31.26,15.38l10.23-19.43,13.07-14.48c-.15,3.04-2.97,20.97,2.09,20.11,3.7-.63,6.78-16.96,8.81-20.87,5.55-10.67,17.77-17.94,29.49-19.24l22.63-.12c-17.71-8.94-33.14-13.84-52.98-7.98-17.47,5.16-26.2,18.02-37.05,31.27,1.96-18.53-11.76-34.21-27.34-42.06-7.75-3.91-15-4.57-22.26-7.45-1.61-.64-2.86.61-2.32-2.39,19.6.17,41.84,1.39,56.67,15.84,18.75-18.08,50.27-20.72,75.22-19.03.76.05,14.17,4.21,10.06.02ZM551.23,296.81c-2.44-39.51-4.64-89.58-35.45-118.68-14.92-14.09-42.62-25.91-57.25-5.3,45.52-18.06,62.32,9.43,74.17,47.71l18.53,76.27ZM478.88,242.06c-19.86-17.74-73.83-38.59-91.21-8.71-8.37,14.39-5.12,34.88,15.26,32.73-12.44-36.17,27.89-40.2,52.96-31.23,19.08,6.83,32.69,23.42,43.44,39.71-3.39-11.09-11.88-24.85-20.45-32.5ZM283.88,227.28c-32.2-30.61-111.25,22.18-103.36,67.87,1.8,10.44,11.68.57,15.19-3.73,13.08-16.03,17.12-33.46,44.47-30.51,4.51.49,20.11,8.18,20.76,7.29,3.2-4.31-8.7-16.22-12.67-18.58-2.51-1.49-10.62-3.11-5.62-4.49,14.38-3.99,34.18,9.59,33.14,25.18,19.63-5.88,22.09-29.73,8.08-43.04ZM336.18,280.91c1.78-2.18-6.71-9.41-9.22-10.37-31.85-12.15-71.77,24.75-85.25,50.98-6.59,12.82-10.37,27.28-14.64,40.97,27.33-34.52,45.74-65.15,90.87-78.1,3.39-.97,17.65-2.77,18.24-3.49ZM348.9,281.98c46.58.15,75.39,43.22,102.73,74.71-10.04-32.13-26.59-67.46-58.92-81.97-13.85-6.21-37.15-10.86-43.81,7.26ZM225.2,287.02c5.7,5.75,14.66-6.74,8.85-11.5-5.48-4.49-13.82,6.49-8.85,11.5ZM441.84,275.82c-5.1,1.48-8.22,13.22-.26,13.45,10.76.31,9.72-16.19.26-13.45ZM471.78,290.46c-3.08,3.05-2.17,6.01-5.77,9.58-10.36,10.27-30.64,2.23-30.25-12.75-5.29,7.31,3.6,20.19,10.59,22.79,13.09,4.86,29.57-4.17,25.43-19.62ZM239.77,304.24c-12.39,1.73-16.75-4.16-22.24-13.78-2.02,14.63,10.1,25.71,22.24,13.78ZM412.13,322.57c-52.84-46.65-121.82-29.92-161.14,24.13-13.43,18.46-25.15,40.57-28.16,63.47,4.47-4.49,8.62-9.46,12.67-14.33,39.06-47.05,57.16-102.7,130.41-85.85,28.55,6.57,42.91,39.33,60.84,59.93,9.46,10.87,21.31,19.81,29.69,31.75-5.92-27.73-21.69-51.3-38.66-73.34l-5.65-5.76ZM232.36,322.25c-6.58.3-11.49.42-16.87-3.8-5.45-4.28-5.94-10.19-9.6-15.28-7.26,19.25,14.11,41.25,26.47,19.08ZM196.08,317.2c-1.52-1.82-10.28-2.91-12.75-2.34-1.77.41-12.98,14.08-14.37,16.55-16.93,30.12-10.79,82.64,11.46,108.97l-3.19-17.98,1.09-32.35c2.68,19.33,5.35,43.34,21.72,56.16,7.2-21.91,1.75-45.32,4.92-68.21.81-5.89,8.16-26.26,8.03-27.7-.06-.63-6.21-7.42-7.65-10.03-2.38-4.3-4.62-9.01-6.63-13.5-1.06-2.36-1.7-8.47-2.61-9.56ZM308.62,346.61c-.44-13.38,7.78-21.9,21.47-19.86,3.03.45,8.07,3.62,9.97,3.72,1.88.1,7.74-3.44,11.59-3.86,14.69-1.61,23.06,7.91,21.06,22.1,7.85-9.87-1.49-21.89-11.58-25.47-11.53-4.09-41.47-3.95-50.4,5.88-3.58,3.94-7,13.46-2.12,17.5ZM311.82,362.48c17,8.83,31.17-14.29,17.47-26.46.22,3.78,1.83,5.69,1.66,10.07-.25,6.5-3.84,12.17-10.08,14.34-3.2,1.11-6.89.25-9.05,2.05ZM369.02,362.51c-15.94,3.3-20.97-13.71-14.29-25.41-15.03,9.91-1.81,34.93,14.29,25.41ZM502.5,361.44c-.09-.08-2.04-.08-2.1,0-.47.63,4.18,12.35,3.22,15.31l-.58,40.84c4.8-10.28,5.66-22.19,4.83-33.43-.25-3.36-3.78-21.25-5.36-22.73ZM292.74,363.56c-16.15,1.42-32.16,15.07-42.4,26.98-22.31,25.96-48.83,91.97-40.81,125.62,5.32,22.33,25.74,19.53,38.68,4.68,27-30.98,20.31-89.01,66.26-105.37l-4.78-1.08,8.47-4.76-6.36-1.05c1.5-2.29,7.26.04,6.37-3.7l-9.53-2.11,8.47-2.15-5.3-4.22,6.35-2.11-6.34-2.12c1.96-.73,9.09.48,8.46-3.18l-7.42-.02,1.07-2.1c-4.66-2.24-20.74,12.2-22.25,10.58-2.42-2.6,11.87-18.24,10.58-23.3-8.47.04-14.88,5.44-22.24,8.46-1.38-1.3,14.05-15.06,12.7-19.06ZM434.37,390.38c-10.46-11.92-28.53-22.52-44.15-25.75.6,8.23,8.56,12.8,13.76,17.99-7.94,1.08-11.06-5.12-18.02-6.89-17.55-4.45.58,14.86,5.31,19.6-11.81-2.63-33.82-11.68-30.69,9.98,1.01,6.96,21.08,18.35,27.01,23.9,31.51,29.5,22.36,91.44,69.36,103.84l-8.46-6.33c8.74,1.01,16.42,3.76,22.07-4.95,16.68-25.76-17.06-109.61-36.18-131.39ZM378.56,443c-19.95-17.1-55.55-17-75.2.55,23.84-8.24,51.25-8.48,75.2-.55ZM323.47,462.1c-1.73-2.88-6.59,11.12-8.47,8.45l1.05-5.29c-2.49,1.07-3.88,3.8-4.24,6.35l-2.09-4.22c-3.34,5.75-15.69,30.84-11.66,36.02.13.17,2.16-1.35,3.19-.65,1.02.7,3,6.35,3.17,8.05l2.09-10.58,2.14,11.64,1.57-4.23,4.76,8.47c.2-2.96-.29-6.03.03-8.99.25-2.33.69-7.28,2.09-9.01.81,6.55,2.72,10.89,6.91,15.88l2.63-6.34c.08,3.74,1.03,7.81,3.73,10.58l1.57-8.46,3.21,10.58,2.62-7.41c1.15,2.46.47,6.22,3.71,7.42l1.06-7.41c.52,2.81,1.34,6.23,4.24,7.41l1.06-5.29,3.18,6.34,2.15-9.52,2.09,5.28,1.08-7.41,4.22,5.29,2.14-10.58,3.69,7.4,3.7-10.58c-.26,1.37,1.66,8.24,3.17,7.41,3.09-5.32,6.68-4.43,6.9-12.72l2.64,8.48c1.62-12.55-3.63-24.91-12.18-33.89l-1.57,3.17-1.09-5.28c-2.07-.34-.56,2.55-1.05,3.18-2.38,3.06-1.44-3.44-3.16-3.18l-2.12,5.28-1.09-6.34c-4.06,5.38-1.96-.19-5.27-2.13l-1.06,5.29-1.6-5.28-3.7,5.28c-1.35-12.14-3.35-4.74-6.36,1.06-.19-12.41-3.3-5.25-4.78-5.31-1.16-.04-.99-4.11-3.16-3.15l-5.83,11.64-.02-12.71-6.33,10.59,1.05-10.58ZM445.31,604.04c54.59-12.1,80.12-68.01,81.56-119.7l-6.07,23.05c-10.81,36.06-30.35,69.5-62.87,89.69-4.04,2.51-8.81,4.13-12.62,6.96Z"/>
  <path d="M678.37,276.68l-13.91-36.39C594.5,80.76,388.19.17,234.98,95.5c-16.92,10.53-34.11,29.26-48.22,37.59-3.88,2.29-9.17,2.56-13.39,4.62-20.45,9.96-33.24,26.68-51.91,37.08-28.82,16.07-56.29,15.87-64.48,56.3-8.93,44.13,12.12,55.27,27.24,88.31,8.97,19.61,2.9,51.57,4.07,73.27,10.32,192.21,202.03,314.44,383.49,262.75,31.71-9.03,59.27-23.8,86.85-41.33-107.81,99.76-268.2,113.81-392.93,35.94C-140.12,459.13,5.56-27.86,372.71,1.25c152.74,12.11,278.95,124.41,305.65,275.43Z"/>
  <path d="M607.4,546.84c-11.22-24.66-24.25-49.06-40.26-70.98,15.23-34.42,20.32-68.13,23.35-105.37.45-5.57-1.53-13.6-1.1-17.52.18-1.65,2.7-4.28,3.11-6.96.7-4.62-.51-10.08.09-14.73,4.31-33.54,33.92-52.22,29.5-93.12-4.34-40.13-42.41-42.05-69.05-59.14-26.18-16.81-36.4-38.2-73.84-34.75-67.6-50.08-162.18-60.94-240.48-30.73,119.23-73.01,274.18-47.18,363.92,59.32,88.45,104.98,87.95,266.13,4.75,374Z" fill="#ba0c2f" stroke="#000" stroke-miterlimit="10"/>
  <path d="M431.15,421.15c7.75,7.41,15.4,19.22,14.15,30.33l-24.35-35.5c-1.89-4.83,9.36,4.37,10.2,5.17Z" fill="#1e2124"/>
  <path d="M423.05,445.13c-2.41,2.69-11.71-11.17-9.52-13.76,1.72-2.03,11.88,11.13,9.52,13.76Z" fill="#1e2124"/>
  <path d="M264.13,415.48l-24.35,36.01c-.62-14.95,10.8-30.53,24.35-36.01Z" fill="#1e2124"/>
  <path d="M270.49,432.43c1.75,1.76-1.88,9.32-4.99,10.36-11.32,3.77,1.03-14.34,4.99-10.36Z" fill="#1e2124"/>
</svg>